<?xml version="1.0" encoding="utf-8"?>
<!-- Generator: Adobe Illustrator 26.5.0, SVG Export Plug-In . SVG Version: 6.00 Build 0)  -->
<svg version="1.1" id="Camada_1" xmlns="http://www.w3.org/2000/svg" xmlns:xlink="http://www.w3.org/1999/xlink" x="0px" y="0px"
	 viewBox="0 0 44.7 35.3" style="enable-background:new 0 0 44.7 35.3;" xml:space="preserve">
<style type="text/css">
	.st0{opacity:0.5;fill:#0099B2;enable-background:new    ;}
</style>
<path class="st0" d="M43.6,35.3H12.5c-0.6,0-1.1-0.5-1.1-1.1V15.6c0-0.6,0.5-1.1,1.1-1.1h31.1c0.6,0,1.1,0.5,1.1,1.1v18.6
	C44.7,34.8,44.2,35.3,43.6,35.3z"/>
<path class="st0" d="M38.4,18.2L11.1,34c-0.5,0.3-1.2,0.1-1.5-0.4L0.4,17.8c-0.3-0.5-0.1-1.2,0.4-1.5L28.2,0.5
	c0.5-0.3,1.2-0.1,1.5,0.4l9.1,15.8C39.2,17.2,39,17.9,38.4,18.2z"/>
</svg>
