<?xml version="1.0" encoding="utf-8"?>
<!-- Generator: Adobe Illustrator 26.5.0, SVG Export Plug-In . SVG Version: 6.00 Build 0)  -->
<svg version="1.1" id="Camada_1" xmlns="http://www.w3.org/2000/svg" xmlns:xlink="http://www.w3.org/1999/xlink" x="0px" y="0px"
	 viewBox="0 0 41 38" style="enable-background:new 0 0 41 38;" xml:space="preserve">
<style type="text/css">
	.st0{opacity:0.5;fill:#0099B2;enable-background:new    ;}
	.st1{fill:#0099B2;}
</style>
<path class="st0" d="M40.1,0.3L30.3,35c0,0.2-0.2,0.2-0.4,0.1l-6.6-6.2l4.9-17.4c0-0.2-0.1-0.3-0.3-0.3L9.6,15.9L3.1,9.7
	C3,9.6,3,9.4,3.2,9.3L39.8,0C40,0,40.1,0.1,40.1,0.3z"/>
<path class="st0" d="M23.3,28.9l-2.5,9c0,0.2-0.2,0.2-0.4,0.1L0.1,18.6c-0.1-0.1-0.1-0.3,0.1-0.3l9.5-2.4L23.3,28.9z"/>
<path class="st1" d="M28.2,11.5l-4.9,17.4l-13.7-13L28,11.2C28.1,11.2,28.3,11.3,28.2,11.5z"/>
</svg>
